<svg width="51" height="50" viewBox="0 0 51 50" fill="none" xmlns="http://www.w3.org/2000/svg">
<path d="M25.5 0C18.7083 0 17.8604 0.03125 15.1937 0.15C12.5312 0.275 10.7187 0.69375 9.125 1.3125C7.48125 1.95 6.08542 2.80625 4.69583 4.19583C3.30625 5.58542 2.44792 6.97917 1.8125 8.625C1.19375 10.2187 0.772917 12.0312 0.65 14.6937C0.525 17.3604 0.5 18.2083 0.5 25C0.5 31.7917 0.53125 32.6396 0.65 35.3063C0.775 37.9667 1.19375 39.7812 1.8125 41.375C2.45 43.0167 3.30625 44.4146 4.69583 45.8042C6.08542 47.1917 7.47917 48.0521 9.125 48.6875C10.7208 49.3042 12.5333 49.7271 15.1937 49.85C17.8604 49.975 18.7083 50 25.5 50C32.2917 50 33.1396 49.9687 35.8063 49.85C38.4667 49.725 40.2812 49.3042 41.875 48.6875C43.5167 48.05 44.9146 47.1917 46.3042 45.8042C47.6917 44.4146 48.5521 43.0229 49.1875 41.375C49.8042 39.7812 50.2271 37.9667 50.35 35.3063C50.475 32.6396 50.5 31.7917 50.5 25C50.5 18.2083 50.4687 17.3604 50.35 14.6937C50.225 12.0333 49.8042 10.2167 49.1875 8.625C48.55 6.98125 47.6917 5.58542 46.3042 4.19583C44.9146 2.80625 43.5229 1.94792 41.875 1.3125C40.2812 0.69375 38.4667 0.272917 35.8063 0.15C33.1396 0.025 32.2917 0 25.5 0ZM25.5 4.5C32.1729 4.5 32.9688 4.53333 35.6042 4.64792C38.0417 4.7625 39.3646 5.16667 40.2437 5.5125C41.4146 5.96458 42.2437 6.50625 43.1229 7.37917C43.9958 8.25417 44.5375 9.08542 44.9896 10.2562C45.3312 11.1354 45.7396 12.4583 45.85 14.8958C45.9687 17.5333 45.9958 18.325 45.9958 25C45.9958 31.675 45.9646 32.4688 45.8417 35.1042C45.7146 37.5417 45.3083 38.8646 44.9646 39.7437C44.4979 40.9146 43.9667 41.7437 43.0917 42.6229C42.2188 43.4958 41.375 44.0375 40.2167 44.4896C39.3417 44.8312 37.9979 45.2396 35.5604 45.35C32.9062 45.4687 32.125 45.4958 25.4375 45.4958C18.7479 45.4958 17.9667 45.4646 15.3146 45.3417C12.875 45.2146 11.5312 44.8083 10.6562 44.4646C9.47083 43.9979 8.65625 43.4667 7.78333 42.5917C6.90625 41.7188 6.34583 40.875 5.90833 39.7167C5.56458 38.8417 5.16042 37.4979 5.03333 35.0604C4.93958 32.4354 4.90625 31.625 4.90625 24.9687C4.90625 18.3104 4.93958 17.4979 5.03333 14.8417C5.16042 12.4042 5.56458 11.0625 5.90833 10.1875C6.34583 9 6.90625 8.1875 7.78333 7.31042C8.65625 6.4375 9.47083 5.875 10.6562 5.43958C11.5312 5.09375 12.8458 4.6875 15.2833 4.5625C17.9396 4.46875 18.7208 4.4375 25.4062 4.4375L25.5 4.5ZM25.5 12.1625C18.4062 12.1625 12.6625 17.9125 12.6625 25C12.6625 32.0938 18.4125 37.8375 25.5 37.8375C32.5938 37.8375 38.3375 32.0875 38.3375 25C38.3375 17.9062 32.5875 12.1625 25.5 12.1625ZM25.5 33.3333C20.8958 33.3333 17.1667 29.6042 17.1667 25C17.1667 20.3958 20.8958 16.6667 25.5 16.6667C30.1042 16.6667 33.8333 20.3958 33.8333 25C33.8333 29.6042 30.1042 33.3333 25.5 33.3333ZM41.8458 11.6562C41.8458 13.3125 40.5 14.6562 38.8458 14.6562C37.1896 14.6562 35.8458 13.3104 35.8458 11.6562C35.8458 10.0021 37.1917 8.65833 38.8458 8.65833C40.4979 8.65625 41.8458 10.0021 41.8458 11.6562Z" fill="black"/>
</svg>
