<svg width="49" height="48" viewBox="0 0 49 48" fill="none" xmlns="http://www.w3.org/2000/svg">
<path d="M41.394 40.6419H34.286V29.6766C34.286 27.0618 34.232 23.6968 30.582 23.6968C26.876 23.6968 26.31 26.5419 26.31 29.4836V40.6419H19.202V18.093H26.03V21.1666H26.122C27.076 19.3945 29.396 17.524 32.862 17.524C40.064 17.524 41.396 22.1905 41.396 28.2648L41.394 40.6419ZM11.174 15.0076C8.886 15.0076 7.048 13.1843 7.048 10.9416C7.048 8.70091 8.888 6.87959 11.174 6.87959C13.454 6.87959 15.302 8.70091 15.302 10.9416C15.302 13.1843 13.452 15.0076 11.174 15.0076ZM14.738 40.6419H7.61V18.093H14.738V40.6419ZM44.95 0.37207H4.042C2.084 0.37207 0.5 1.89607 0.5 3.77646V44.2235C0.5 46.1059 2.084 47.6279 4.042 47.6279H44.944C46.9 47.6279 48.5 46.1059 48.5 44.2235V3.77646C48.5 1.89607 46.9 0.37207 44.944 0.37207L44.95 0.37207Z" fill="black"/>
</svg>
