<svg width="58" height="69" viewBox="0 0 58 69" fill="none" xmlns="http://www.w3.org/2000/svg">
<path d="M29.5894 68.8999C28.6094 68.754 27.4791 68.8769 26.6726 68.4209C18.3294 63.7031 10.0175 58.9276 1.7678 54.0471C1.00829 53.5977 0.321633 52.3202 0.304709 51.4139C0.13083 42.1029 0.150113 32.7884 0.000990967 23.4767C-0.0385821 21.0058 1.10929 19.6619 3.04602 18.3202C9.25037 14.0222 15.3044 9.50422 21.4027 5.05206C23.6318 3.42466 25.8223 1.74375 28.3398 0.0814209C28.8781 0.407653 29.1068 0.739717 29.3311 1.219C29.2963 1.45957 29.2661 1.55292 29.1515 1.66104C29.0671 1.6758 28.9083 1.75255 28.7985 1.88616C28.4475 2.67055 28.2064 3.32133 27.8393 4.12749C26.615 6.0602 25.5168 7.83754 24.2143 9.55743C21.3069 11.0522 18.6039 12.6045 15.7073 14.1915C14.5 14.8007 13.4863 15.3752 12.2918 16.0021C11.322 16.4375 10.533 16.8204 9.57928 17.2496C8.94573 17.6215 8.47687 17.9472 7.79816 18.2979C6.79459 19.0236 5.89766 19.6389 5.23554 20.4483C4.54156 21.2968 4.07294 22.3316 3.50582 23.285C3.19841 23.2345 2.891 23.184 2.58359 23.1335C3.01089 24.6365 3.31198 26.1906 3.89002 27.6325C5.39859 31.3954 7.02843 35.1091 8.59211 39.0015C8.57124 39.2674 8.56816 39.374 8.37669 39.5278C6.74163 42.1799 5.29496 44.7849 3.69645 47.4987C2.88182 48.8814 2.21905 50.1552 1.55628 51.429C1.73935 51.6248 1.92243 51.8205 2.10552 52.0163C3.51463 51.3983 4.92374 50.7803 6.53545 50.134C8.5519 49.2423 10.3658 48.3789 12.2883 47.5008C12.3969 47.4861 12.5906 47.3827 12.7899 47.4258C13.1248 47.478 13.2604 47.4871 13.3844 47.4794C13.3729 47.4627 13.337 47.4816 13.3353 47.6965C18.5827 54.8325 23.8305 61.7547 29.0937 68.665C29.1739 68.7702 29.4441 68.729 29.5989 68.7876C29.5722 68.819 29.5894 68.8999 29.5894 68.8999Z" fill="#F0E8D9"/>
<path d="M57.4832 53.1714C50.4869 57.3517 43.4897 61.5304 36.4954 65.714C35.2764 66.4431 34.07 67.1934 32.6543 67.7513C32.8262 66.8519 33.1092 66.0637 33.5935 65.4313C35.446 63.0127 37.3632 60.6442 39.325 58.139C39.5081 57.8737 39.6511 57.7639 40.0305 57.6908C43.2981 55.3461 46.3633 53.0096 49.4018 50.6383C49.5551 50.5187 49.477 50.0994 49.7206 49.7952C52.3548 50.5181 54.7751 51.2655 57.2147 52.1625C57.3171 52.5985 57.4002 52.8849 57.4832 53.1714Z" fill="#EEE5D4"/>
<path d="M57.8521 37.7138C57.8907 41.9091 57.9293 46.1044 57.7558 50.5643C57.3166 50.8368 57.0895 50.8446 56.7259 50.7139C54.648 47.0132 52.7066 43.4512 50.6688 39.7105C50.4943 38.9388 50.1693 38.2317 50.3794 37.7719C51.4912 35.339 52.7375 32.9683 54.0213 30.7856C54.6499 32.2627 55.1049 33.58 55.7661 34.7827C56.3402 35.8271 57.1477 36.7418 57.8521 37.7138Z" fill="#E4DBCD"/>
<path d="M53.9371 30.5761C52.7374 32.9683 51.491 35.339 50.3793 37.7718C50.1692 38.2317 50.4942 38.9388 50.5026 39.825C49.7272 40.8545 49.0215 41.5906 48.335 42.0944C48.5257 40.941 48.9345 39.9912 48.8274 39.1044C48.3762 35.3671 49.3947 32.1346 51.4212 29.0017C52.7556 26.9388 53.5651 24.5325 54.6873 22.1477C54.9268 21.8933 55.0886 21.7712 55.4548 21.6521C56.4316 21.8386 57.2041 22.0221 57.9765 22.2057C57.9971 22.3163 58.0178 22.4269 57.8112 22.6892C56.792 24.3657 56.0001 25.8905 55.1145 27.5851C54.6596 28.6953 54.2983 29.6357 53.9371 30.5761Z" fill="#586669"/>
<path d="M34.7354 4.5072C37.156 6.08092 39.5766 7.65465 42.059 9.62428C41.7398 11.0438 41.3587 12.0674 40.793 13.023C38.2696 11.6646 35.9306 10.3741 33.4641 8.95318C33.0359 8.16117 32.7353 7.49965 32.6323 6.81775C33.4651 6.03398 34.1002 5.27059 34.7354 4.5072Z" fill="#8A8A84"/>
<path d="M40.9771 13.0909C41.3582 12.0673 41.7393 11.0437 42.1258 9.80957C45.0204 11.6363 47.901 13.6862 50.8071 15.6988C51.3144 16.0502 51.9292 16.2447 52.6898 16.7416C52.7004 17.5942 52.5155 18.2169 52.1509 18.8193C51.5134 18.6503 51.0556 18.5017 50.4608 18.2205C49.2831 17.6034 48.2425 17.119 47.0046 16.5811C44.8639 15.3819 42.9205 14.2364 40.9771 13.0909Z" fill="#ADA99F"/>
<path d="M54.021 30.7857C54.2981 29.6357 54.6594 28.6953 55.265 27.7297C55.9866 28.7599 56.2413 30.2058 57.9454 29.1079C57.9512 31.802 57.9571 34.496 57.9074 37.452C57.1474 36.7418 56.3399 35.8271 55.7658 34.7827C55.1046 33.58 54.6496 32.2627 54.021 30.7857Z" fill="#CAC9C8"/>
<path d="M39.2559 58.257C37.3629 60.6443 35.4457 63.0128 33.5932 65.4315C33.1089 66.0638 32.826 66.8521 32.4473 67.7772C31.6122 68.3572 30.7804 68.7286 29.769 69C29.5894 68.9 29.5721 68.8191 29.6537 68.5933C32.4893 64.982 35.2434 61.5965 38.2071 58.2244C38.6964 58.2441 38.9762 58.2506 39.2559 58.257Z" fill="#E4DBCD"/>
<path d="M34.6641 4.32452C34.1001 5.27051 33.4649 6.03391 32.4811 6.70452C31.5154 5.51868 30.8983 4.42561 30.2643 3.16869C30.0472 2.76721 29.8469 2.52957 29.5477 2.1281C29.3778 1.85828 29.3068 1.7523 29.2358 1.64631C29.2661 1.55295 29.2964 1.4596 29.4184 1.0932C29.6732 0.720791 29.8362 0.621443 29.9992 0.522095C31.5304 1.7287 33.0617 2.93531 34.6641 4.32452Z" fill="#627175"/>
<path d="M52.3311 18.8397C52.516 18.217 52.7009 17.5942 52.9005 16.7742C54.6167 18.3127 56.318 20.0485 57.998 21.995C57.2042 22.0221 56.4318 21.8386 55.4806 21.4906C54.3116 20.4974 53.3213 19.6685 52.3311 18.8397Z" fill="#C0BAAC"/>
<path d="M57.9903 28.9099C56.2416 30.2057 55.9868 28.7598 55.3589 27.5598C56.0002 25.8904 56.7921 24.3657 57.7834 22.8556C58.0001 24.8175 58.0176 26.7647 57.9903 28.9099Z" fill="#C0BAAC"/>
<path d="M56.8623 50.8524C57.0894 50.8445 57.3165 50.8367 57.7141 50.8284C57.8802 51.5449 57.8758 52.262 57.6773 53.0752C57.4001 52.885 57.3171 52.5986 57.1568 51.9688C57.0072 51.3677 56.9347 51.1101 56.8623 50.8524Z" fill="#CAC9C8"/>
<path d="M29.9701 0.343268C29.8363 0.621455 29.6733 0.720803 29.423 0.945986C29.107 0.739762 28.8783 0.407699 28.5181 0C28.9047 0.00438746 29.4228 0.0844063 29.9701 0.343268Z" fill="#D8D7D6"/>
<path d="M37.9977 58.211C35.2436 61.5965 32.4895 64.982 29.6806 68.5618C29.4442 68.729 29.1739 68.7702 29.0938 68.665C23.8306 61.7547 18.5827 54.8326 13.4497 47.5424C13.6211 47.0575 13.6763 46.9415 13.9158 46.8072C14.5315 46.2563 14.9629 45.7237 15.5194 45.0453C20.1081 39.8395 24.5718 34.7795 29.2275 29.7395C34.2188 35.0731 39.0181 40.3868 43.8384 45.8816C44.3157 46.4355 44.7719 46.8082 45.2282 47.181C45.3716 46.9812 45.5151 46.7815 45.6586 46.5817C45.0893 46.0812 44.52 45.5807 43.9071 44.8741C43.2152 43.4127 42.5998 42.1388 41.913 40.9052C37.8144 33.5426 33.6993 26.1893 29.6332 18.5956C29.7143 17.5579 29.7519 16.7575 30.0047 15.9562C32.0286 16.9888 34.1775 17.6909 35.5669 19.1329C37.7058 21.3529 39.2243 24.1644 41.2131 26.5503C41.9735 27.4624 43.3044 27.8935 44.4172 28.7792C44.6279 30.7948 44.7099 32.5898 45.0042 34.3489C45.1408 35.165 45.6904 35.9113 46.009 36.9123C46.2089 40.5587 46.4526 43.9821 46.5703 47.4512C46.2839 47.5851 46.1541 47.7064 45.8675 47.9246C43.1192 51.3959 40.5584 54.8035 37.9977 58.211Z" fill="#181A1B"/>
<path d="M24.4187 9.61487C25.517 7.83754 26.6152 6.06021 27.9931 4.13329C28.4776 3.98222 28.6825 3.98075 28.9256 4.24372C28.9852 9.28347 29.0066 14.0588 28.971 19.0087C28.8755 19.5481 28.8371 19.9127 28.647 20.3325C28.3288 20.5227 28.1622 20.6577 27.8725 20.61C26.5855 20.6407 25.01 20.4484 24.3335 21.1424C22.1438 23.3886 20.1873 25.8887 18.3299 28.4306C16.9943 30.2583 15.9266 32.268 13.3295 32.32C13.3036 31.6689 13.3123 31.233 13.4465 30.6196C13.6354 29.066 13.6989 27.6899 13.929 26.2255C14.449 25.6202 14.8025 25.1032 15.289 24.4626C15.8084 23.4599 16.1946 22.5808 16.7702 21.6651C17.6044 20.5348 18.2493 19.4411 18.8875 18.318C18.8808 18.2887 18.8217 18.2986 18.9968 18.3167C19.2534 18.1223 19.3349 17.9099 19.3958 17.695C19.3753 17.6925 19.3988 17.7268 19.5683 17.6514C19.8193 17.2364 19.9009 16.8969 19.9633 16.5515C19.944 16.5456 19.9607 16.5824 20.1432 16.5909C20.3981 16.3796 20.4705 16.1599 20.6364 15.7711C21.9595 13.6063 23.1891 11.6106 24.4187 9.61487Z" fill="#0E1010"/>
<path d="M13.364 32.5353C15.9263 32.2681 16.994 30.2584 18.3296 28.4307C20.1871 25.8888 22.1435 23.3887 24.3332 21.1425C25.0097 20.4485 26.5853 20.6408 27.8666 20.8028C27.3413 22.3305 26.7123 23.4908 26.0537 24.6339C22.3337 31.0898 18.5975 37.5364 14.92 44.0167C14.7912 44.2436 15.2234 44.7925 15.3941 45.1913C14.9627 45.7238 14.5314 46.2564 13.7503 46.8437C13.3991 47.0977 13.3975 47.2969 13.3959 47.4962C13.2603 47.4872 13.1247 47.4781 12.8149 47.1616C12.8818 42.0813 13.1229 37.3083 13.364 32.5353Z" fill="#1E2121"/>
<path d="M8.60981 38.8425C7.02834 35.1092 5.39849 31.3954 3.88992 27.6326C3.31188 26.1907 3.01079 24.6366 2.5835 23.1336C2.8909 23.1841 3.19832 23.2346 3.50573 23.2851C4.07285 22.3317 4.54147 21.2969 5.23545 20.4484C5.89756 19.6389 6.7945 19.0237 7.80395 18.5159C8.57614 20.6607 9.13256 22.6128 9.47168 24.5317C8.19678 24.3386 7.13916 24.1786 5.81963 23.9789C6.82077 28.0795 7.71203 31.7301 8.60735 35.5544C8.79819 36.001 8.98498 36.2739 9.16774 36.7585C9.16752 37.3932 9.17132 37.8161 9.10483 38.361C8.92251 38.6381 8.78093 38.7579 8.60981 38.8425Z" fill="#D5C8B3"/>
<path d="M3.84814 47.3898C5.29482 44.7849 6.74149 42.1799 8.39134 39.7319C9.7895 42.4311 10.9845 44.9733 12.1795 47.5155C10.3656 48.3789 8.55176 49.2423 6.52019 49.9354C5.48436 48.9733 4.66626 48.1815 3.84814 47.3898Z" fill="#8A8A84"/>
<path d="M16.5808 21.7017C16.1945 22.5808 15.8083 23.4599 15.0922 24.5048C13.8633 24.5452 12.3588 24.688 12.1669 24.2497C11.1745 21.9828 10.5179 19.5672 9.74414 17.2034C10.5331 16.8205 11.3222 16.4375 12.4701 16.0936C14.0797 17.989 15.3302 19.8454 16.5808 21.7017Z" fill="#ADA99F"/>
<path d="M24.2143 9.5575C23.189 11.6106 21.9594 13.6064 20.499 15.8371C20.1657 16.2422 20.0632 16.4124 19.9606 16.5825C19.9606 16.5825 19.9438 16.5457 19.8073 16.6369C19.5801 17.061 19.4894 17.3939 19.3986 17.7268C19.3986 17.7268 19.3751 17.6926 19.257 17.7498C19.0332 17.9709 18.9274 18.1348 18.8216 18.2987C18.8216 18.2987 18.8806 18.2887 18.6814 18.2576C17.6217 16.8699 16.7613 15.5134 15.9009 14.1568C18.6039 12.6046 21.307 11.0523 24.2143 9.5575Z" fill="#627175"/>
<path d="M12.2884 47.5008C10.9848 44.9733 9.78979 42.4311 8.58001 39.6848C8.56831 39.3741 8.57139 39.2674 8.59226 39.0016C8.78117 38.7579 8.92275 38.6381 9.30471 38.4169C10.1732 39.9004 10.7718 41.45 11.6554 43.7372C11.9803 39.8439 12.2408 36.7227 12.504 33.378C12.7782 32.3688 13.0496 31.5829 13.321 30.7971C13.3122 31.233 13.3035 31.669 13.3295 32.3201C13.1231 37.3082 12.8821 42.0812 12.6159 47.1185C12.5908 47.3828 12.3971 47.4862 12.2884 47.5008Z" fill="#C0BAAC"/>
<path d="M15.7073 14.1915C16.7613 15.5133 17.6217 16.8699 18.6881 18.2869C18.2492 19.4411 17.6043 20.5349 16.7701 21.6652C15.3302 19.8454 14.0796 17.989 12.6509 16.0412C13.4864 15.3752 14.5001 14.8008 15.7073 14.1915Z" fill="#8A8A84"/>
<path d="M9.57905 17.2496C10.5175 19.5672 11.1741 21.9828 12.1666 24.2497C12.3584 24.688 13.8629 24.5452 14.9587 24.6284C14.802 25.1033 14.4486 25.6203 13.7242 26.2079C12.703 26.0767 12.0527 25.8748 11.3685 25.4787C10.7842 25.0409 10.2338 24.7973 9.68957 24.5503C9.69575 24.547 9.68884 24.5648 9.68884 24.5648C9.13242 22.6128 8.57599 20.6607 8.01367 18.4908C8.47664 17.9472 8.94549 17.6215 9.57905 17.2496Z" fill="#C0BAAC"/>
<path d="M3.69632 47.4988C4.66627 48.1816 5.48438 48.9734 6.31761 49.9637C4.92362 50.7804 3.5145 51.3984 2.10539 52.0164C1.92231 51.8206 1.73923 51.6249 1.55615 51.4291C2.21892 50.1553 2.88169 48.8815 3.69632 47.4988Z" fill="#ADA99F"/>
<path d="M29.0277 18.8342C29.0063 14.0589 28.9849 9.28355 28.979 4.02571C28.9658 2.94633 28.937 2.34948 28.9082 1.75264C28.9082 1.75264 29.067 1.6759 29.1513 1.66113C29.3066 1.75236 29.3776 1.85834 29.5379 2.31567C29.6618 2.91267 29.6965 3.15833 29.6911 3.66842C29.6971 7.94099 29.7432 11.9491 29.7893 15.9572C29.7517 16.7576 29.7141 17.558 29.4925 18.592C29.3086 18.8256 29.0277 18.8342 29.0277 18.8342Z" fill="#D8D7D6"/>
<path d="M28.7983 1.88623C28.9369 2.34946 28.9657 2.9463 28.9407 3.76125C28.6821 3.98081 28.4772 3.98228 28.1187 3.97796C28.2062 3.3214 28.4473 2.67062 28.7983 1.88623Z" fill="#1E2121"/>
<path d="M13.3846 47.4795C13.3978 47.297 13.3993 47.0977 13.5662 46.8621C13.6764 46.9416 13.6212 47.0576 13.4516 47.3276C13.3372 47.4818 13.3731 47.4628 13.3846 47.4795Z" fill="#C0BAAC"/>
<path d="M46.0547 47.8608C46.1539 47.7065 46.2837 47.5851 46.7114 47.3163C47.4243 45.5327 47.8699 43.9298 48.3155 42.3268C49.0213 41.5906 49.727 40.8544 50.5988 40.0037C52.7062 43.4511 54.6477 47.0132 56.7255 50.7138C56.9344 51.1101 57.0069 51.3677 57.1372 51.8192C54.7747 51.2656 52.3545 50.5182 49.5464 49.7525C48.7735 49.4865 48.3883 49.2387 47.8664 48.8551C47.1713 48.4331 46.613 48.147 46.0547 47.8608Z" fill="#3E5058"/>
<path d="M48.0035 48.991C48.3887 49.2387 48.7739 49.4865 49.3329 49.777C49.4771 50.0995 49.5551 50.5188 49.4018 50.6384C46.3634 53.0097 43.2981 55.3462 40.1187 57.5204C42.6672 54.5643 45.3354 51.7776 48.0035 48.991Z" fill="#E4DBCD"/>
<path d="M47.8664 48.855C45.3351 51.7776 42.6669 54.5642 39.9106 57.5214C39.6508 57.764 39.5079 57.8737 39.3247 58.139C38.9761 58.2505 38.6964 58.244 38.207 58.2243C40.5583 54.8034 43.119 51.3959 45.8673 47.9246C46.613 48.1469 47.1713 48.433 47.8664 48.855Z" fill="#CAC9C8"/>
<path d="M48.3348 42.0943C47.87 43.9298 47.4244 45.5327 46.8375 47.2706C46.4525 43.9821 46.2088 40.5587 46.0184 36.6764C45.8937 35.1763 45.7157 34.1352 45.6816 32.9577C47.2383 30.0554 48.6508 27.2895 50.1973 24.3846C51.7573 23.5904 53.1834 22.9352 54.6095 22.28C53.565 24.5325 52.7555 26.9388 51.4211 29.0017C49.3946 32.1345 48.3761 35.367 48.8273 39.1044C48.9343 39.9912 48.5255 40.941 48.3348 42.0943Z" fill="#4A595E"/>
<path d="M54.6871 22.1477C53.1833 22.9352 51.7572 23.5904 49.9858 24.3924C49.2174 24.5474 48.7944 24.5556 48.4458 24.3663C49.2128 22.2303 49.9054 20.2917 50.598 18.3531C51.0557 18.5017 51.5134 18.6503 52.1509 18.8193C53.321 19.6685 54.3113 20.4973 55.2759 21.4876C55.0884 21.7712 54.9266 21.8932 54.6871 22.1477Z" fill="#627175"/>
<path d="M30.0046 15.9562C29.7433 11.949 29.6972 7.94091 29.83 3.66088C30.0088 3.38897 30.2811 3.33252 30.2811 3.33252C30.8982 4.42559 31.5153 5.51866 32.2834 6.72489C32.735 7.49957 33.0356 8.16108 33.4835 9.15698C36.948 14.7134 40.2654 19.9354 43.6677 25.297C43.928 25.5454 44.1034 25.6541 44.2939 25.7677C44.3089 25.7726 44.2945 25.7443 44.2798 25.9777C44.3019 26.9887 44.3386 27.7662 44.3752 28.5438C43.3043 27.8935 41.9733 27.4624 41.213 26.5503C39.2241 24.1644 37.7057 21.353 35.5668 19.133C34.1774 17.6909 32.0285 16.9888 30.0046 15.9562Z" fill="#0A0B0C"/>
<path d="M43.5831 25.1574C40.2657 19.9354 36.9483 14.7134 33.6113 9.28748C35.9306 10.374 38.2696 11.6645 40.793 13.0229C42.9209 14.2364 44.8643 15.3819 47.0029 16.789C46.2574 19.7287 45.3167 22.4069 44.1777 25.1024C43.8473 25.1323 43.7152 25.1449 43.5831 25.1574Z" fill="#3E5058"/>
<path d="M44.3756 25.085C45.3163 22.4069 46.257 19.7287 47.1998 16.8427C48.2426 17.1191 49.2832 17.6035 50.4609 18.2205C49.9054 20.2918 49.2128 22.2303 48.4418 24.3579C48.3633 24.5469 48.3765 24.5505 48.2036 24.5578C47.7611 24.7543 47.4916 24.9436 47.2233 25.1249C47.2247 25.117 47.2238 25.1353 47.0322 25.1301C46.4003 25.3204 45.96 25.516 45.4554 25.8281C45.2822 26.088 45.1482 26.2016 44.9057 26.1578C44.6463 25.9349 44.4704 25.8396 44.2944 25.7443C44.2944 25.7443 44.3088 25.7726 44.328 25.5994C44.3566 25.3124 44.3661 25.1987 44.3756 25.085Z" fill="#4D5E64"/>
<path d="M30.2641 3.16873C30.281 3.33258 30.0087 3.38903 29.8699 3.3965C29.6964 3.15831 29.6617 2.91266 29.6367 2.47949C29.8466 2.52962 30.0469 2.76725 30.2641 3.16873Z" fill="#181A1B"/>
<path d="M28.9707 19.0088C29.0277 18.8341 29.3086 18.8255 29.4491 18.8292C33.6991 26.1893 37.8142 33.5426 41.9129 40.9052C42.5996 42.1389 43.215 43.4127 43.8583 45.0258C43.8412 45.4892 43.8292 45.5949 43.8172 45.7005C39.0179 40.3868 34.2186 35.0731 29.2028 29.4707C28.9236 26.2138 28.861 23.2456 28.7983 20.2774C28.8368 19.9128 28.8752 19.5481 28.9707 19.0088Z" fill="#EEE5D4"/>
<path d="M28.6466 20.3325C28.8608 23.2456 28.9234 26.2138 29.0106 29.4507C24.5714 34.7795 20.1078 39.8395 15.519 45.0453C15.2232 44.7924 14.7911 44.2435 14.9199 44.0166C18.5973 37.5363 22.3335 31.0897 26.0535 24.6338C26.7121 23.4907 27.3411 22.3304 27.9895 20.9854C28.1618 20.6577 28.3284 20.5227 28.6466 20.3325Z" fill="#ADA99F"/>
<path d="M44.2798 25.9777C44.4704 25.8395 44.6463 25.9348 44.8963 26.3965C45.1594 28.8733 45.3485 30.9837 45.5376 33.094C45.7156 34.1352 45.8937 35.1763 46.0621 36.4534C45.6902 35.9113 45.1406 35.165 45.004 34.3489C44.7097 32.5898 44.6277 30.7948 44.417 28.7792C44.3385 27.7662 44.3018 26.9887 44.2798 25.9777Z" fill="#586669"/>
<path d="M43.8381 45.8816C43.8291 45.5949 43.8411 45.4893 43.9017 45.2319C44.5197 45.5807 45.089 46.0813 45.6583 46.5818C45.5148 46.7816 45.3713 46.9813 45.2279 47.1811C44.7716 46.8083 44.3154 46.4355 43.8381 45.8816Z" fill="#4A595E"/>
<path d="M11.4025 25.6728C12.0527 25.8747 12.703 26.0767 13.5576 26.2962C13.6985 27.6899 13.635 29.066 13.4461 30.6196C13.0493 31.5829 12.7779 32.3687 12.3651 33.2522C11.3857 30.6029 10.5476 27.8559 9.88623 25.1406C10.5095 25.3391 10.956 25.5059 11.4025 25.6728Z" fill="#8A8A84"/>
<path d="M19.5681 17.6514C19.4894 17.3939 19.5801 17.061 19.8266 16.6427C19.9008 16.8969 19.8192 17.2364 19.5681 17.6514Z" fill="#8A8A84"/>
<path d="M18.9965 18.3167C18.9271 18.1348 19.0329 17.9708 19.2773 17.7522C19.3345 17.9099 19.253 18.1223 18.9965 18.3167Z" fill="#8A8A84"/>
<path d="M20.1429 16.5909C20.063 16.4123 20.1656 16.2422 20.4054 16.0061C20.4703 16.1599 20.3978 16.3796 20.1429 16.5909Z" fill="#8A8A84"/>
<path d="M9.70976 25.109C10.5479 27.856 11.386 30.6029 12.3626 33.4756C12.2407 36.7227 11.9803 39.8439 11.6553 43.7372C10.7718 41.45 10.1732 39.9004 9.37495 38.2949C9.17151 37.816 9.16771 37.3931 9.28157 36.6534C9.13398 36.0179 8.86875 35.6992 8.60349 35.3806C7.71222 31.73 6.82096 28.0795 5.81982 23.9789C7.13936 24.1785 8.19697 24.3386 9.47187 24.5317C9.68917 24.5648 9.69609 24.547 9.69968 24.689C9.70328 24.831 9.70976 25.109 9.70976 25.109Z" fill="#ADA99F"/>
<path d="M8.60742 35.5544C8.86862 35.6993 9.13386 36.018 9.28547 36.4417C8.98505 36.2739 8.79826 36.0011 8.60742 35.5544Z" fill="#C0BAAC"/>
<path d="M9.88638 25.1406C9.70962 25.109 9.70314 24.8309 9.69336 24.6923C10.234 24.7972 10.7844 25.0409 11.3687 25.4787C10.9561 25.5059 10.5096 25.3391 9.88638 25.1406Z" fill="#D5C8B3"/>
<path d="M45.6819 32.9577C45.3487 30.9837 45.1596 28.8733 44.98 26.5242C45.1485 26.2016 45.2825 26.088 45.6451 25.8185C46.3405 25.5068 46.7823 25.321 47.2241 25.1353C47.2241 25.1353 47.225 25.117 47.3945 25.1118C47.8349 24.9211 48.1059 24.7358 48.3768 24.5505C48.3768 24.5505 48.3636 24.5469 48.3676 24.5553C48.7947 24.5556 49.2177 24.5475 49.8522 24.5315C48.6511 27.2895 47.2385 30.0554 45.6819 32.9577Z" fill="#3E5058"/>
<path d="M44.1776 25.1024C44.3664 25.1987 44.357 25.3124 44.3132 25.5945C44.1037 25.6541 43.9283 25.5454 43.668 25.297C43.7151 25.1449 43.8472 25.1324 44.1776 25.1024Z" fill="#586669"/>
<path d="M47.0322 25.1301C46.782 25.3211 46.3402 25.5068 45.709 25.7021C45.96 25.5161 46.4003 25.3205 47.0322 25.1301Z" fill="#586669"/>
<path d="M48.2039 24.5577C48.1058 24.7358 47.8349 24.9211 47.3931 25.1196C47.4918 24.9436 47.7614 24.7543 48.2039 24.5577Z" fill="#627175"/>
</svg>
