<svg class="border shadow-md" viewBox="0 0 791.6088888888888 445.28000000000003" style="width: 791.609px; height: 445.28px;" xmlns="http://www.w3.org/2000/svg" preserveAspectRatio="none"><rect class="bg" id="bg" x="0" y="0" width="791.6088888888888" height="445.28000000000003" fill="#ffffff"/><path d="M 0 -26.19294117647059 L 0 -26.19&#10;                L 43.98 -4.19&#10;                L 131.9348148148148 -26.19 L 131.9348148148148 -26.19&#10;                L 184.93 -10.19&#10;                L 263.8696296296296 -26.19 L 263.8696296296296 -26.19&#10;                L 321.87 -13.10&#10;                L 395.80444444444447 -26.19 L 395.80444444444447 -26.19&#10;                L 454.80 -13.10&#10;                L 527.7392592592593 -26.19 L 527.7392592592593 -26.19&#10;                L 600.74 -1.19&#10;                L 659.674074074074 -26.19 L 659.674074074074 -26.19&#10;                L 754.67 -2.19&#10;                L 791.6088888888888 -26.19 L 791.6088888888889 -26.19&#10;                L 835.59 -10.19&#10;                L 923.5437037037037 -26.19  V 445.28 H 0 V -26.19 Z" fill="#000000"/><path d="M 0 0 L 0 0.00&#10;                L 43.98 19.00&#10;                L 131.9348148148148 0.00 L 131.9348148148148 0.00&#10;                L 175.91 21.00&#10;                L 263.8696296296296 0.00 L 263.8696296296296 0.00&#10;                L 307.85 22.00&#10;                L 395.80444444444447 0.00 L 395.80444444444447 0.00&#10;                L 491.80 18.00&#10;                L 527.7392592592593 0.00 L 527.7392592592593 0.00&#10;                L 571.72 25.00&#10;                L 659.674074074074 0.00 L 659.674074074074 0.00&#10;                L 736.67 21.00&#10;                L 791.6088888888888 0.00 L 791.6088888888889 0.00&#10;                L 835.59 13.10&#10;                L 923.5437037037037 0.00  V 445.28 H 0 V 0.00 Z" fill="#00030a"/><path d="M 0 26.19294117647059 L 0 26.19&#10;                L 72.00 39.29&#10;                L 131.9348148148148 26.19 L 131.9348148148148 26.19&#10;                L 175.91 39.29&#10;                L 263.8696296296296 26.19 L 263.8696296296296 26.19&#10;                L 307.85 39.29&#10;                L 395.80444444444447 26.19 L 395.80444444444447 26.19&#10;                L 439.78 41.19&#10;                L 527.7392592592593 26.19 L 527.7392592592593 26.19&#10;                L 571.72 41.19&#10;                L 659.674074074074 26.19 L 659.674074074074 26.19&#10;                L 703.65 39.29&#10;                L 791.6088888888888 26.19 L 791.6088888888889 26.19&#10;                L 854.61 39.29&#10;                L 923.5437037037037 26.19  V 445.28 H 0 V 26.19 Z" fill="#000614"/><path d="M 0 52.38588235294118 L 0 52.39&#10;                L 43.98 76.39&#10;                L 131.9348148148148 52.39 L 131.9348148148148 52.39&#10;                L 177.93 73.39&#10;                L 263.8696296296296 52.39 L 263.8696296296296 52.39&#10;                L 307.85 70.39&#10;                L 395.80444444444447 52.39 L 395.80444444444447 52.39&#10;                L 454.80 67.39&#10;                L 527.7392592592593 52.39 L 527.7392592592593 52.39&#10;                L 592.74 65.48&#10;                L 659.674074074074 52.39 L 659.674074074074 52.39&#10;                L 718.67 72.39&#10;                L 791.6088888888888 52.39 L 791.6088888888889 52.39&#10;                L 835.59 65.48&#10;                L 923.5437037037037 52.39  V 445.28 H 0 V 52.39 Z" fill="#00091e"/><path d="M 0 78.57882352941178 L 0 78.58&#10;                L 67.00 91.68&#10;                L 131.9348148148148 78.58 L 131.9348148148148 78.58&#10;                L 175.91 94.58&#10;                L 263.8696296296296 78.58 L 263.8696296296296 78.58&#10;                L 307.85 91.68&#10;                L 395.80444444444447 78.58 L 395.80444444444447 78.58&#10;                L 487.80 94.58&#10;                L 527.7392592592593 78.58 L 527.7392592592593 78.58&#10;                L 571.72 91.68&#10;                L 659.674074074074 78.58 L 659.674074074074 78.58&#10;                L 703.65 102.58&#10;                L 791.6088888888888 78.58 L 791.6088888888889 78.58&#10;                L 835.59 91.68&#10;                L 923.5437037037037 78.58  V 445.28 H 0 V 78.58 Z" fill="#000c28"/><path d="M 0 104.77176470588236 L 0 104.77&#10;                L 59.00 117.87&#10;                L 131.9348148148148 104.77 L 131.9348148148148 104.77&#10;                L 204.93 117.87&#10;                L 263.8696296296296 104.77 L 263.8696296296296 104.77&#10;                L 307.85 123.77&#10;                L 395.80444444444447 104.77 L 395.80444444444447 104.77&#10;                L 439.78 123.77&#10;                L 527.7392592592593 104.77 L 527.7392592592593 104.77&#10;                L 571.72 117.87&#10;                L 659.674074074074 104.77 L 659.674074074074 104.77&#10;                L 703.67 123.77&#10;                L 791.6088888888888 104.77 L 791.6088888888889 104.77&#10;                L 835.59 117.87&#10;                L 923.5437037037037 104.77  V 445.28 H 0 V 104.77 Z" fill="#000f32"/><path d="M 0 130.96470588235294 L 0 130.96&#10;                L 97.00 144.96&#10;                L 131.9348148148148 130.96 L 131.9348148148148 130.96&#10;                L 221.93 154.96&#10;                L 263.8696296296296 130.96 L 263.8696296296296 130.96&#10;                L 312.87 144.96&#10;                L 395.80444444444447 130.96 L 395.80444444444447 130.96&#10;                L 463.80 151.96&#10;                L 527.7392592592593 130.96 L 527.7392592592593 130.96&#10;                L 581.74 149.96&#10;                L 659.674074074074 130.96 L 659.674074074074 130.96&#10;                L 747.67 144.06&#10;                L 791.6088888888888 130.96 L 791.6088888888889 130.96&#10;                L 873.61 148.96&#10;                L 923.5437037037037 130.96  V 445.28 H 0 V 130.96 Z" fill="#00123c"/><path d="M 0 157.15764705882356 L 0 157.16&#10;                L 49.00 182.16&#10;                L 131.9348148148148 157.16 L 131.9348148148148 157.16&#10;                L 175.91 170.25&#10;                L 263.8696296296296 157.16 L 263.8696296296296 157.16&#10;                L 324.87 170.25&#10;                L 395.80444444444447 157.16 L 395.80444444444447 157.16&#10;                L 470.80 173.16&#10;                L 527.7392592592593 157.16 L 527.7392592592593 157.16&#10;                L 625.74 177.16&#10;                L 659.674074074074 157.16 L 659.674074074074 157.16&#10;                L 751.67 170.25&#10;                L 791.6088888888888 157.16 L 791.6088888888889 157.16&#10;                L 835.59 170.25&#10;                L 923.5437037037037 157.16  V 445.28 H 0 V 157.16 Z" fill="#001546"/><path d="M 0 183.35058823529414 L 0 183.35&#10;                L 66.00 197.35&#10;                L 131.9348148148148 183.35 L 131.9348148148148 183.35&#10;                L 193.93 196.45&#10;                L 263.8696296296296 183.35 L 263.8696296296296 183.35&#10;                L 344.87 206.35&#10;                L 395.80444444444447 183.35 L 395.80444444444447 183.35&#10;                L 461.80 197.35&#10;                L 527.7392592592593 183.35 L 527.7392592592593 183.35&#10;                L 571.72 196.45&#10;                L 659.674074074074 183.35 L 659.674074074074 183.35&#10;                L 703.65 196.45&#10;                L 791.6088888888888 183.35 L 791.6088888888889 183.35&#10;                L 835.59 206.35&#10;                L 923.5437037037037 183.35  V 445.28 H 0 V 183.35 Z" fill="#001850"/><path d="M 0 209.54352941176472 L 0 209.54&#10;                L 43.98 227.54&#10;                L 131.9348148148148 209.54 L 131.9348148148148 209.54&#10;                L 175.91 234.54&#10;                L 263.8696296296296 209.54 L 263.8696296296296 209.54&#10;                L 307.85 233.54&#10;                L 395.80444444444447 209.54 L 395.80444444444447 209.54&#10;                L 443.80 222.64&#10;                L 527.7392592592593 209.54 L 527.7392592592593 209.54&#10;                L 571.72 222.64&#10;                L 659.674074074074 209.54 L 659.674074074074 209.54&#10;                L 716.67 231.54&#10;                L 791.6088888888888 209.54 L 791.6088888888889 209.54&#10;                L 835.59 222.64&#10;                L 923.5437037037037 209.54  V 445.28 H 0 V 209.54 Z" fill="#001b5a"/><path d="M 0 235.7364705882353 L 0 235.74&#10;                L 43.98 248.83&#10;                L 131.9348148148148 235.74 L 131.9348148148148 235.74&#10;                L 175.91 248.83&#10;                L 263.8696296296296 235.74 L 263.8696296296296 235.74&#10;                L 322.87 248.83&#10;                L 395.80444444444447 235.74 L 395.80444444444447 235.74&#10;                L 478.80 250.74&#10;                L 527.7392592592593 235.74 L 527.7392592592593 235.74&#10;                L 611.74 251.74&#10;                L 659.674074074074 235.74 L 659.674074074074 235.74&#10;                L 737.67 254.74&#10;                L 791.6088888888888 235.74 L 791.6088888888889 235.74&#10;                L 847.61 255.74&#10;                L 923.5437037037037 235.74  V 445.28 H 0 V 235.74 Z" fill="#001e64"/><path d="M 0 261.9294117647059 L 0 261.93&#10;                L 90.00 275.03&#10;                L 131.9348148148148 261.93 L 131.9348148148148 261.93&#10;                L 175.91 279.93&#10;                L 263.8696296296296 261.93 L 263.8696296296296 261.93&#10;                L 332.87 286.93&#10;                L 395.80444444444447 261.93 L 395.80444444444447 261.93&#10;                L 439.78 282.93&#10;                L 527.7392592592593 261.93 L 527.7392592592593 261.93&#10;                L 578.74 277.93&#10;                L 659.674074074074 261.93 L 659.674074074074 261.93&#10;                L 738.67 275.03&#10;                L 791.6088888888888 261.93 L 791.6088888888889 261.93&#10;                L 835.59 275.03&#10;                L 923.5437037037037 261.93  V 445.28 H 0 V 261.93 Z" fill="#00216e"/><path d="M 0 288.1223529411765 L 0 288.12&#10;                L 45.00 301.22&#10;                L 131.9348148148148 288.12 L 131.9348148148148 288.12&#10;                L 178.93 301.22&#10;                L 263.8696296296296 288.12 L 263.8696296296296 288.12&#10;                L 307.85 301.22&#10;                L 395.80444444444447 288.12 L 395.80444444444447 288.12&#10;                L 439.78 301.22&#10;                L 527.7392592592593 288.12 L 527.7392592592593 288.12&#10;                L 571.72 301.22&#10;                L 659.674074074074 288.12 L 659.674074074074 288.12&#10;                L 745.67 301.22&#10;                L 791.6088888888888 288.12 L 791.6088888888889 288.12&#10;                L 875.61 313.12&#10;                L 923.5437037037037 288.12  V 445.28 H 0 V 288.12 Z" fill="#002478"/><path d="M 0 314.3152941176471 L 0 314.32&#10;                L 62.00 331.32&#10;                L 131.9348148148148 314.32 L 131.9348148148148 314.32&#10;                L 193.93 327.41&#10;                L 263.8696296296296 314.32 L 263.8696296296296 314.32&#10;                L 326.87 330.32&#10;                L 395.80444444444447 314.32 L 395.80444444444447 314.32&#10;                L 469.80 327.41&#10;                L 527.7392592592593 314.32 L 527.7392592592593 314.32&#10;                L 571.72 339.32&#10;                L 659.674074074074 314.32 L 659.674074074074 314.32&#10;                L 703.67 329.32&#10;                L 791.6088888888888 314.32 L 791.6088888888889 314.32&#10;                L 835.59 337.32&#10;                L 923.5437037037037 314.32  V 445.28 H 0 V 314.32 Z" fill="#002782"/><path d="M 0 340.5082352941177 L 0 340.51&#10;                L 43.98 353.60&#10;                L 131.9348148148148 340.51 L 131.9348148148148 340.51&#10;                L 175.91 355.51&#10;                L 263.8696296296296 340.51 L 263.8696296296296 340.51&#10;                L 307.85 353.60&#10;                L 395.80444444444447 340.51 L 395.80444444444447 340.51&#10;                L 439.78 361.51&#10;                L 527.7392592592593 340.51 L 527.7392592592593 340.51&#10;                L 608.74 353.60&#10;                L 659.674074074074 340.51 L 659.674074074074 340.51&#10;                L 721.67 353.60&#10;                L 791.6088888888888 340.51 L 791.6088888888889 340.51&#10;                L 835.59 355.51&#10;                L 923.5437037037037 340.51  V 445.28 H 0 V 340.51 Z" fill="#002a8c"/><path d="M 0 366.7011764705883 L 0 366.70&#10;                L 43.98 379.80&#10;                L 131.9348148148148 366.70 L 131.9348148148148 366.70&#10;                L 181.93 382.70&#10;                L 263.8696296296296 366.70 L 263.8696296296296 366.70&#10;                L 307.85 390.70&#10;                L 395.80444444444447 366.70 L 395.80444444444447 366.70&#10;                L 439.78 387.70&#10;                L 527.7392592592593 366.70 L 527.7392592592593 366.70&#10;                L 571.74 379.80&#10;                L 659.674074074074 366.70 L 659.674074074074 366.70&#10;                L 703.65 388.70&#10;                L 791.6088888888888 366.70 L 791.6088888888889 366.70&#10;                L 849.61 379.80&#10;                L 923.5437037037037 366.70  V 445.28 H 0 V 366.70 Z" fill="#002d96"/><path d="M 0 392.89411764705886 L 0 392.89&#10;                L 95.00 405.99&#10;                L 131.9348148148148 392.89 L 131.9348148148148 392.89&#10;                L 175.91 405.99&#10;                L 263.8696296296296 392.89 L 263.8696296296296 392.89&#10;                L 344.87 405.99&#10;                L 395.80444444444447 392.89 L 395.80444444444447 392.89&#10;                L 439.78 405.99&#10;                L 527.7392592592593 392.89 L 527.7392592592593 392.89&#10;                L 571.72 408.89&#10;                L 659.674074074074 392.89 L 659.674074074074 392.89&#10;                L 703.65 417.89&#10;                L 791.6088888888888 392.89 L 791.6088888888889 392.89&#10;                L 835.59 413.89&#10;                L 923.5437037037037 392.89  V 445.28 H 0 V 392.89 Z" fill="#0030a0"/><path d="M 0 419.08705882352945 L 0 419.09&#10;                L 57.00 432.18&#10;                L 131.9348148148148 419.09 L 131.9348148148148 419.09&#10;                L 189.93 433.09&#10;                L 263.8696296296296 419.09 L 263.8696296296296 419.09&#10;                L 328.87 432.18&#10;                L 395.80444444444447 419.09 L 395.80444444444447 419.09&#10;                L 457.80 435.09&#10;                L 527.7392592592593 419.09 L 527.7392592592593 419.09&#10;                L 596.74 432.18&#10;                L 659.674074074074 419.09 L 659.674074074074 419.09&#10;                L 703.67 432.18&#10;                L 791.6088888888888 419.09 L 791.6088888888889 419.09&#10;                L 835.59 432.18&#10;                L 923.5437037037037 419.09  V 445.28 H 0 V 419.09 Z" fill="#0033aa"/></svg>